<svg xmlns="http://www.w3.org/2000/svg" width="1440" height="900" viewBox="0 0 1440 900" role="img" aria-labelledby="title desc">
  <title id="title">CreatorDock workspace preview</title>
  <desc id="desc">A dark sidebar beside a bright dashboard with project statistics, a production pipeline, and upcoming work.</desc>
  <defs>
    <linearGradient id="bg" x1="0" y1="0" x2="1" y2="1"><stop stop-color="#f8f8f4"/><stop offset="1" stop-color="#eeeee8"/></linearGradient>
    <linearGradient id="brand" x1="0" y1="0" x2="1" y2="1"><stop stop-color="#9a82ff"/><stop offset="1" stop-color="#6c54de"/></linearGradient>
    <filter id="shadow" x="-20%" y="-20%" width="140%" height="140%"><feDropShadow dx="0" dy="14" stdDeviation="20" flood-color="#25202f" flood-opacity=".10"/></filter>
  </defs>
  <rect width="1440" height="900" fill="url(#bg)"/>
  <rect x="42" y="38" width="1356" height="824" rx="24" fill="#ffffff" filter="url(#shadow)"/>
  <path d="M66 38h254v824H66c-13.3 0-24-10.7-24-24V62c0-13.3 10.7-24 24-24Z" fill="#181721"/>

  <rect x="73" y="71" width="42" height="42" rx="13" fill="url(#brand)"/>
  <path d="M86 92h16M94 84v16" stroke="#fff" stroke-width="2.5" stroke-linecap="round"/>
  <text x="128" y="99" fill="#fff" font-family="Inter,system-ui,sans-serif" font-size="23" font-weight="700">CreatorDock</text>
  <text x="74" y="157" fill="#777383" font-family="Inter,system-ui,sans-serif" font-size="11" font-weight="700" letter-spacing="1.8">WORKSPACE</text>

  <g font-family="Inter,system-ui,sans-serif" font-size="15" font-weight="600">
    <rect x="62" y="176" width="238" height="48" rx="12" fill="#302d40"/>
    <g fill="none" stroke="#aa96ff" stroke-width="2"><rect x="80" y="190" width="18" height="18" rx="4"/><path d="M89 190v18M80 199h18"/></g>
    <text x="112" y="206" fill="#fff">Overview</text>
    <path d="M83 258h13M83 266h13M83 274h13" stroke="#817c8b" stroke-width="2" stroke-linecap="round"/>
    <text x="112" y="269" fill="#aaa6b2">Pipeline</text>
    <rect x="80" y="302" width="18" height="17" rx="3" fill="none" stroke="#817c8b" stroke-width="2"/><path d="M80 308h18M85 299v6M93 299v6" stroke="#817c8b" stroke-width="2"/>
    <text x="112" y="316" fill="#aaa6b2">Calendar</text>
    <path d="M80 351h18v18H80zM86 351v18M86 357h12" fill="none" stroke="#817c8b" stroke-width="2"/>
    <text x="112" y="364" fill="#aaa6b2">Templates</text>
  </g>

  <rect x="66" y="711" width="230" height="79" rx="15" fill="#24222e"/>
  <circle cx="90" cy="739" r="5" fill="#62d6a9"/>
  <text x="106" y="743" fill="#e7e4ed" font-family="Inter,system-ui,sans-serif" font-size="13" font-weight="650">Local-first workspace</text>
  <text x="82" y="766" fill="#85808e" font-family="Inter,system-ui,sans-serif" font-size="11">No account or analytics</text>
  <rect x="66" y="805" width="230" height="39" rx="11" fill="url(#brand)"/>
  <path d="M87 818v13M80.5 824.5h13" stroke="#fff" stroke-width="2" stroke-linecap="round"/>
  <text x="108" y="830" fill="#fff" font-family="Inter,system-ui,sans-serif" font-size="14" font-weight="700">New project</text>
  <rect x="259" y="816" width="24" height="18" rx="5" fill="#ffffff" fill-opacity=".16"/><text x="267" y="829" fill="#d9d3ef" font-family="Inter,system-ui,sans-serif" font-size="11">N</text>

  <rect x="320" y="38" width="1078" height="70" fill="#fff"/>
  <line x1="320" y1="108" x2="1398" y2="108" stroke="#eceae6"/>
  <text x="354" y="67" fill="#9a969e" font-family="Inter,system-ui,sans-serif" font-size="10" font-weight="700" letter-spacing="1.5">WORKSPACE</text>
  <text x="354" y="91" fill="#25232b" font-family="Inter,system-ui,sans-serif" font-size="17" font-weight="700">Overview</text>
  <rect x="1299" y="57" width="46" height="38" rx="11" fill="url(#brand)"/>
  <path d="M1322 68v16M1314 76h16" stroke="#fff" stroke-width="2" stroke-linecap="round"/>

  <text x="356" y="168" fill="#6c54de" font-family="Inter,system-ui,sans-serif" font-size="11" font-weight="750" letter-spacing="1.5">YOUR CREATIVE WORK</text>
  <text x="354" y="207" fill="#222027" font-family="Inter,system-ui,sans-serif" font-size="31" font-weight="760">Good ideas deserve a clear path.</text>
  <text x="354" y="235" fill="#77727c" font-family="Inter,system-ui,sans-serif" font-size="14">Keep the brief, next step, deadline, and useful links in one calm workspace.</text>

  <g font-family="Inter,system-ui,sans-serif">
    <rect x="354" y="268" width="235" height="112" rx="16" fill="#f7f5ff" stroke="#ebe6ff"/>
    <text x="375" y="296" fill="#817991" font-size="11" font-weight="700" letter-spacing="1">ACTIVE PROJECTS</text><text x="375" y="347" fill="#282330" font-size="35" font-weight="760">4</text><circle cx="552" cy="318" r="18" fill="#e7e0ff"/><path d="M544 318h16M552 310v16" stroke="#745bdb" stroke-width="2"/>
    <rect x="604" y="268" width="235" height="112" rx="16" fill="#fff8f1" stroke="#f5e7d9"/>
    <text x="625" y="296" fill="#8b7d73" font-size="11" font-weight="700" letter-spacing="1">DUE THIS WEEK</text><text x="625" y="347" fill="#282330" font-size="35" font-weight="760">2</text><circle cx="802" cy="318" r="18" fill="#fee7d1"/><path d="M794 311h16v15h-16zM794 316h16" fill="none" stroke="#cc6b34" stroke-width="2"/>
    <rect x="854" y="268" width="235" height="112" rx="16" fill="#f2faf7" stroke="#dcefe8"/>
    <text x="875" y="296" fill="#6e857c" font-size="11" font-weight="700" letter-spacing="1">COMPLETED</text><text x="875" y="347" fill="#282330" font-size="35" font-weight="760">7</text><circle cx="1052" cy="318" r="18" fill="#d8f2e8"/><path d="m1044 318 5 5 10-11" fill="none" stroke="#188263" stroke-width="2.3"/>
    <rect x="1104" y="268" width="235" height="112" rx="16" fill="#fff5f5" stroke="#f3dfdf"/>
    <text x="1125" y="296" fill="#8d7474" font-size="11" font-weight="700" letter-spacing="1">NEEDS ATTENTION</text><text x="1125" y="347" fill="#282330" font-size="35" font-weight="760">1</text><circle cx="1302" cy="318" r="18" fill="#f8dddd"/><path d="M1302 309v11M1302 326h.1" stroke="#c04f4f" stroke-width="2.3" stroke-linecap="round"/>
  </g>

  <rect x="354" y="405" width="985" height="401" rx="18" fill="#fff" stroke="#e8e5e2"/>
  <text x="378" y="440" fill="#28252d" font-family="Inter,system-ui,sans-serif" font-size="17" font-weight="720">Production pulse</text>
  <text x="378" y="462" fill="#8a858d" font-family="Inter,system-ui,sans-serif" font-size="12">Illustrative projects across the current pipeline</text>

  <g font-family="Inter,system-ui,sans-serif">
    <rect x="378" y="491" width="216" height="279" rx="14" fill="#f8f7f4"/>
    <circle cx="398" cy="515" r="5" fill="#e2be43"/><text x="411" y="520" fill="#5e5963" font-size="12" font-weight="750">IDEAS</text><text x="566" y="520" fill="#9b969d" font-size="11">1</text>
    <rect x="390" y="540" width="192" height="111" rx="12" fill="#fff" stroke="#e9e5df"/>
    <text x="405" y="563" fill="#98929a" font-size="9" font-weight="700" letter-spacing="1">ARTICLE</text><text x="405" y="588" fill="#312e35" font-size="14" font-weight="700">A better weekly reset</text><text x="405" y="610" fill="#858087" font-size="11">Shape the useful angle</text>
    <rect x="405" y="627" width="96" height="6" rx="3" fill="#eeeae5"/><rect x="405" y="627" width="22" height="6" rx="3" fill="#e2be43"/>

    <rect x="608" y="491" width="216" height="279" rx="14" fill="#f8f7f4"/>
    <circle cx="628" cy="515" r="5" fill="#54a6d8"/><text x="641" y="520" fill="#5e5963" font-size="12" font-weight="750">PLANNING</text><text x="796" y="520" fill="#9b969d" font-size="11">1</text>
    <rect x="620" y="540" width="192" height="139" rx="12" fill="#fff" stroke="#e9e5df"/>
    <text x="635" y="563" fill="#98929a" font-size="9" font-weight="700" letter-spacing="1">GUIDE</text><text x="635" y="588" fill="#312e35" font-size="14" font-weight="700">Creative systems field guide</text><text x="635" y="610" fill="#858087" font-size="11">Sources gathered, outline next</text>
    <rect x="635" y="631" width="154" height="6" rx="3" fill="#eeeae5"/><rect x="635" y="631" width="68" height="6" rx="3" fill="#54a6d8"/><text x="635" y="657" fill="#76717a" font-size="10">3 of 7 steps</text>

    <rect x="838" y="491" width="216" height="279" rx="14" fill="#f8f7f4"/>
    <circle cx="858" cy="515" r="5" fill="#ec7956"/><text x="871" y="520" fill="#5e5963" font-size="12" font-weight="750">PRODUCING</text><text x="1026" y="520" fill="#9b969d" font-size="11">1</text>
    <rect x="850" y="540" width="192" height="128" rx="12" fill="#fff" stroke="#e9e5df"/>
    <text x="865" y="563" fill="#98929a" font-size="9" font-weight="700" letter-spacing="1">AUDIO</text><text x="865" y="588" fill="#312e35" font-size="14" font-weight="700">Behind the process</text><text x="865" y="610" fill="#858087" font-size="11">Record the first conversation</text>
    <rect x="865" y="631" width="154" height="6" rx="3" fill="#eeeae5"/><rect x="865" y="631" width="91" height="6" rx="3" fill="#ec7956"/>

    <rect x="1068" y="491" width="247" height="279" rx="14" fill="#f8f7f4"/>
    <circle cx="1088" cy="515" r="5" fill="#8a69d8"/><text x="1101" y="520" fill="#5e5963" font-size="12" font-weight="750">EDITING</text><text x="1287" y="520" fill="#9b969d" font-size="11">1</text>
    <rect x="1080" y="540" width="223" height="150" rx="12" fill="#fff" stroke="#e9e5df"/>
    <text x="1095" y="563" fill="#98929a" font-size="9" font-weight="700" letter-spacing="1">NEWSLETTER</text><text x="1095" y="588" fill="#312e35" font-size="14" font-weight="700">Notes worth keeping</text><text x="1095" y="610" fill="#858087" font-size="11">Tighten the opening and links</text>
    <rect x="1095" y="631" width="193" height="6" rx="3" fill="#eeeae5"/><rect x="1095" y="631" width="145" height="6" rx="3" fill="#8a69d8"/><text x="1095" y="659" fill="#8a69d8" font-size="10" font-weight="650">75% complete</text>
  </g>
</svg>
